<svg width="32" height="32" viewBox="0 0 32 32" fill="none" xmlns="http://www.w3.org/2000/svg">
  <rect width="32" height="32" rx="6" fill="#0A0A0A"/>
  
  <!-- Letter G -->
  <path d="M16 5C9.925 5 5 9.925 5 16C5 22.075 9.925 27 16 27C19.5 27 22.6 25.3 24.5 22.7V16H16V19H21.5C20.3 21.5 17.8 23.2 15 23.2C11 23.2 8 19.8 8 15.5C8 11.2 11 7.8 15 7.8C17 7.8 18.8 8.6 20.1 9.9L22.5 7.5C20.6 5.6 18 5 16 5Z" fill="#ef233c"/>
  
  <!-- Camera aperture in center -->
  <circle cx="16" cy="16" r="5.5" stroke="#0A0A0A" stroke-width="1" fill="none"/>
  <circle cx="16" cy="16" r="4" stroke="#0A0A0A" stroke-width="0.8" fill="none"/>
  
  <!-- Aperture blades -->
  <path d="M16 12.5L17.5 14.5L14.5 14.5Z" fill="#0A0A0A"/>
  <path d="M19.5 16L17.5 17.5L17.5 14.5Z" fill="#0A0A0A"/>
  <path d="M16 19.5L14.5 17.5L17.5 17.5Z" fill="#0A0A0A"/>
  <path d="M12.5 16L14.5 14.5L14.5 17.5Z" fill="#0A0A0A"/>
</svg>
